<?xml version="1.0" encoding="UTF-8" standalone="no"?>
<svg
   xmlns:dc="http://purl.org/dc/elements/1.1/"
   xmlns:cc="http://creativecommons.org/ns#"
   xmlns:rdf="http://www.w3.org/1999/02/22-rdf-syntax-ns#"
   xmlns:svg="http://www.w3.org/2000/svg"
   xmlns="http://www.w3.org/2000/svg"
   xmlns:sodipodi="http://sodipodi.sourceforge.net/DTD/sodipodi-0.dtd"
   xmlns:inkscape="http://www.inkscape.org/namespaces/inkscape"
   width="178.58946mm"
   height="49.748554mm"
   viewBox="0 0 178.58946 49.748554"
   version="1.1"
   id="svg8"
   inkscape:version="1.0.2 (e86c870879, 2021-01-15)"
   sodipodi:docname="logo.svg">
  <defs
     id="defs2">
    <rect
       x="43.832203"
       y="129.35844"
       width="80.448128"
       height="21.114292"
       id="rect38" />
    <rect
       x="48.643055"
       y="112.2532"
       width="121.8749"
       height="22.98518"
       id="rect32" />
    <rect
       x="4.5357141"
       y="49.136906"
       width="199.57143"
       height="59.720238"
       id="rect18" />
    <rect
       x="14.363095"
       y="24.946428"
       width="185.96429"
       height="65.011902"
       id="rect12" />
    <rect
       x="14.363095"
       y="24.946428"
       width="185.96429"
       height="65.011902"
       id="rect12-5" />
    <rect
       x="14.363095"
       y="24.946428"
       width="185.96429"
       height="65.011902"
       id="rect53" />
    <rect
       x="4.5357141"
       y="49.136906"
       width="199.57143"
       height="59.720238"
       id="rect18-5" />
    <rect
       x="4.5357141"
       y="49.136906"
       width="199.57143"
       height="59.720238"
       id="rect56" />
  </defs>
  <sodipodi:namedview
     id="base"
     pagecolor="#ffffff"
     bordercolor="#666666"
     borderopacity="1.0"
     inkscape:pageopacity="0.0"
     inkscape:pageshadow="2"
     inkscape:zoom="0.98994949"
     inkscape:cx="305.00467"
     inkscape:cy="81.564729"
     inkscape:document-units="px"
     inkscape:current-layer="layer2"
     inkscape:document-rotation="0"
     showgrid="false"
     inkscape:window-width="1465"
     inkscape:window-height="1040"
     inkscape:window-x="26"
     inkscape:window-y="0"
     inkscape:window-maximized="0"
     fit-margin-top="5"
     fit-margin-left="7.5"
     fit-margin-right="7.5"
     fit-margin-bottom="5"
     lock-margins="false"
     inkscape:pagecheckerboard="true" />
  <metadata
     id="metadata5">
    <rdf:RDF>
      <cc:Work
         rdf:about="">
        <dc:format>image/svg+xml</dc:format>
        <dc:type
           rdf:resource="http://purl.org/dc/dcmitype/StillImage" />
        <dc:title></dc:title>
      </cc:Work>
    </rdf:RDF>
  </metadata>
  <g
     inkscape:label="Warstwa 1"
     inkscape:groupmode="layer"
     id="layer1"
     style="display:inline"
     transform="translate(-16.052995,-86.309846)" />
  <g
     inkscape:groupmode="layer"
     id="layer2"
     inkscape:label="Warstwa 2"
     transform="translate(-16.052995,-86.309846)">
    <text
       xml:space="preserve"
       id="text10-0"
       style="font-size:25.4px;line-height:1.25;font-family:Benne;-inkscape-font-specification:Benne;white-space:pre;shape-inside:url(#rect12-5);"
       transform="translate(15.9766,65.09258)"><tspan
         x="14.363281"
         y="44.124265"><tspan
           style="font-size:25.4px">monika</tspan></tspan></text>
    <text
       xml:space="preserve"
       id="text16-2"
       style="font-size:25.4px;line-height:1.25;font-family:Benne;-inkscape-font-specification:Benne;white-space:pre;shape-inside:url(#rect18-5);"
       transform="translate(60.50968,62.160483)"><tspan
         x="4.5351562"
         y="68.313718"><tspan
           style="shape-inside:url(#rect18-5)">chmielewska</tspan></tspan></text>
    <path
       id="path114"
       d="m 23.553003,113.82793 c 1.384388,0.72485 2.651506,1.65838 3.939364,2.54011 1.630952,1.23114 3.431172,2.20381 5.243544,3.13629 0.640615,0.3296 1.273927,0.6757 1.932337,0.96814 0.774443,0.34397 1.574853,0.62623 2.362279,0.93934 4.459552,1.30149 9.11221,2.01348 13.765154,1.92238 0.651137,-0.0128 1.300446,-0.0735 1.950667,-0.11029 1.428351,-0.13138 2.849949,-0.34817 4.228709,-0.75141 1.071792,-0.31347 2.102016,-0.75202 3.135839,-1.1692 1.383003,-0.56383 2.616369,-1.37908 3.902985,-2.13732 0,0 -2.160098,0.84048 -2.160098,0.84048 v 0 c 3.298796,-1.83266 0.6942,-0.34978 0.02508,-0.0953 -2.452502,1.01025 -4.744201,1.85945 -7.431717,2.05985 -0.659767,0.0498 -1.318127,0.12443 -1.979303,0.14925 -4.645869,0.17437 -9.31437,-0.45342 -13.749739,-1.83779 -0.769012,-0.31837 -1.550797,-0.60748 -2.307034,-0.95509 -0.648648,-0.29817 -1.273448,-0.64587 -1.904006,-0.98059 -1.77692,-0.94325 -3.52231,-1.94698 -5.10423,-3.19762 -1.275805,-0.88777 -2.542048,-1.79601 -3.86521,-2.61129 0,0 -1.984629,1.29009 -1.984629,1.29009 z"
       style="stroke-width:0.264583" />
  </g>
</svg>
